<svg width="24" height="24" viewBox="0 0 24 24" fill="none" xmlns="http://www.w3.org/2000/svg">
    <path d="M9.50289 4.25722L8.80653 4.53576L9.50289 4.25722ZM10.5572 6.89288L11.2535 6.61434L10.5572 6.89288ZM10.2366 8.91603L10.8128 9.39617V9.39617L10.2366 8.91603ZM9.66925 9.5969L10.2454 10.077H10.2454L9.66925 9.5969ZM9.79148 12.2915L9.26115 12.8218L9.79148 12.2915ZM11.7085 14.2085L12.2389 13.6782L11.7085 14.2085ZM14.4031 14.3307L13.923 13.7546L14.4031 14.3307ZM15.084 13.7634L15.5641 14.3395L15.5641 14.3395L15.084 13.7634ZM17.1071 13.4428L16.8286 14.1392H16.8286L17.1071 13.4428ZM19.7428 14.4971L20.0213 13.8008L19.7428 14.4971ZM4.89474 3.75H7.64593V2.25H4.89474V3.75ZM8.80653 4.53576L9.86079 7.17142L11.2535 6.61434L10.1992 3.97868L8.80653 4.53576ZM9.66048 8.43589L9.09308 9.11676L10.2454 10.077L10.8128 9.39617L9.66048 8.43589ZM9.26115 12.8218L11.1782 14.7389L12.2389 13.6782L10.3218 11.7612L9.26115 12.8218ZM14.8832 14.9069L15.5641 14.3395L14.6038 13.1872L13.923 13.7546L14.8832 14.9069ZM16.8286 14.1392L19.4642 15.1935L20.0213 13.8008L17.3857 12.7465L16.8286 14.1392ZM20.25 16.3541V19.1053H21.75V16.3541H20.25ZM19.1053 20.25C10.6248 20.25 3.75 13.3752 3.75 4.89474H2.25C2.25 14.2036 9.79636 21.75 19.1053 21.75V20.25ZM20.25 19.1053C20.25 19.7375 19.7375 20.25 19.1053 20.25V21.75C20.5659 21.75 21.75 20.5659 21.75 19.1053H20.25ZM19.4642 15.1935C19.9388 15.3833 20.25 15.8429 20.25 16.3541H21.75C21.75 15.2296 21.0654 14.2184 20.0213 13.8008L19.4642 15.1935ZM15.5641 14.3395C15.9168 14.0456 16.4023 13.9687 16.8286 14.1392L17.3857 12.7465C16.4478 12.3714 15.3798 12.5405 14.6038 13.1872L15.5641 14.3395ZM11.1782 14.7389C12.1839 15.7446 13.7906 15.8175 14.8832 14.9069L13.923 13.7546C13.4263 14.1685 12.696 14.1353 12.2389 13.6782L11.1782 14.7389ZM9.09308 9.11676C8.18254 10.2094 8.25543 11.8161 9.26115 12.8218L10.3218 11.7612C9.86466 11.304 9.83154 10.5737 10.2454 10.077L9.09308 9.11676ZM9.86079 7.17142C10.0313 7.59772 9.9544 8.08318 9.66048 8.43589L10.8128 9.39617C11.4594 8.6202 11.6286 7.55218 11.2535 6.61434L9.86079 7.17142ZM7.64593 3.75C8.15706 3.75 8.6167 4.06119 8.80653 4.53576L10.1992 3.97868C9.78162 2.93462 8.77042 2.25 7.64593 2.25V3.75ZM4.89474 2.25C3.43409 2.25 2.25 3.43409 2.25 4.89474H3.75C3.75 4.26252 4.26252 3.75 4.89474 3.75V2.25Z" fill="#595959"></path>
</svg>
