<svg width="32" height="33" viewBox="0 0 32 33" fill="none" xmlns="http://www.w3.org/2000/svg">
<path fill-rule="evenodd" clip-rule="evenodd" d="M21 12.7002C21 17.3946 17.1944 21.2002 12.5 21.2002C7.80558 21.2002 4 17.3946 4 12.7002C4 8.00577 7.80558 4.2002 12.5 4.2002C17.1944 4.2002 21 8.00577 21 12.7002ZM19 12.7002C19 16.29 16.0899 19.2002 12.5 19.2002C8.91015 19.2002 6 16.29 6 12.7002C6 9.11034 8.91015 6.2002 12.5 6.2002C16.0899 6.2002 19 9.11034 19 12.7002Z" fill="#F7F7F7"/>
<path d="M20.7071 19.4931C20.3166 19.1026 19.6834 19.1026 19.2929 19.4931C18.9024 19.8836 18.9024 20.5168 19.2929 20.9073L25.2929 26.9073C25.6834 27.2978 26.3166 27.2978 26.7071 26.9073C27.0976 26.5168 27.0976 25.8836 26.7071 25.4931L20.7071 19.4931Z" fill="#F7F7F7"/>
</svg>
